<?xml version="1.0" standalone="no"?>
<!DOCTYPE svg PUBLIC "-//W3C//DTD SVG 20010904//EN"
 "http://www.w3.org/TR/2001/REC-SVG-20010904/DTD/svg10.dtd">
<svg version="1.0" xmlns="http://www.w3.org/2000/svg"
 width="45pt" height="50pt" viewBox="0 0 4500.000000 5000.000000"
 preserveAspectRatio="xMidYMid meet">

<g transform="translate(0.000000,5000.000000) scale(0.100000,-0.100000)"
fill="#000000" stroke="none">
<path d="M21677 37349 c-604 -25 -1328 -133 -1937 -288 -435 -110 -579 -150
-761 -211 -300 -100 -640 -240 -1009 -417 -91 -44 -212 -101 -270 -128 -572
-268 -1399 -731 -1876 -1051 -461 -310 -603 -419 -995 -768 -234 -209 -689
-657 -873 -860 -206 -227 -509 -599 -658 -806 -87 -121 -310 -449 -473 -695
-169 -255 -465 -776 -595 -1050 -77 -160 -180 -400 -317 -735 -60 -146 -92
-236 -203 -565 -60 -176 -142 -419 -184 -540 -107 -310 -129 -386 -270 -957
-129 -520 -183 -792 -221 -1123 -9 -82 -28 -235 -41 -340 -13 -104 -44 -350
-69 -545 -55 -442 -65 -562 -65 -810 0 -296 41 -817 90 -1140 11 -69 33 -219
50 -335 30 -203 73 -440 124 -691 106 -520 307 -1002 662 -1590 120 -199 259
-385 457 -611 148 -169 279 -282 499 -431 274 -184 606 -333 868 -387 141 -30
445 -76 560 -86 146 -12 411 -13 470 0 323 67 395 89 612 191 406 192 622 339
914 623 212 205 305 327 409 536 95 188 169 407 226 659 48 216 60 346 66 712
4 279 2 355 -11 455 -18 128 -79 447 -97 505 -5 19 -21 73 -33 120 -33 120
-75 260 -81 269 -2 5 -20 71 -40 147 -44 171 -63 355 -71 684 -25 966 191
1948 621 2819 587 1191 1528 2150 2690 2742 680 346 1387 547 2150 610 192 16
701 16 870 1 715 -68 1305 -226 1903 -512 1034 -495 1893 -1324 2436 -2350
367 -693 580 -1427 648 -2230 17 -198 16 -759 0 -950 -63 -706 -219 -1323
-499 -1970 -60 -139 -87 -184 -217 -380 -106 -158 -121 -176 -366 -420 -271
-272 -360 -348 -962 -820 -128 -101 -386 -292 -578 -428 -58 -42 -154 -112
-215 -157 -60 -45 -155 -115 -210 -155 -55 -41 -134 -101 -175 -135 -41 -34
-124 -99 -185 -145 -60 -46 -153 -121 -205 -165 -165 -141 -406 -332 -507
-402 -167 -114 -250 -181 -376 -300 -67 -64 -185 -170 -262 -235 -174 -149
-193 -169 -423 -453 -278 -343 -287 -356 -373 -524 -73 -146 -136 -338 -283
-866 -33 -119 -53 -231 -61 -335 -3 -47 -13 -150 -22 -230 -15 -145 -15 -194
7 -468 18 -226 74 -446 195 -767 29 -77 66 -167 81 -200 117 -254 457 -692
684 -881 141 -117 477 -309 730 -417 250 -106 640 -208 950 -247 281 -36 920
1 1310 75 335 64 517 93 690 109 30 3 105 10 165 16 61 6 166 17 235 24 162
18 598 21 710 5 73 -10 93 -10 141 4 99 29 151 115 129 214 -18 80 -46 130
-185 338 -259 388 -389 676 -454 1007 -71 363 -96 652 -88 1033 6 287 13 377
48 620 187 1304 896 2446 1954 3150 280 186 378 235 688 345 295 103 434 136
747 175 201 25 233 27 485 22 149 -4 322 -11 385 -17 121 -11 463 -70 715
-122 127 -27 171 -31 290 -31 118 0 155 4 236 26 291 77 487 262 636 602 123
281 173 426 259 755 114 435 133 511 159 635 14 66 39 174 55 240 58 236 129
721 150 1020 32 473 49 1248 31 1435 -25 261 -51 491 -65 580 -21 133 -53 415
-61 540 -7 119 -12 154 -54 405 -17 99 -37 237 -46 306 -8 69 -31 204 -50 300
-20 96 -51 255 -71 354 -62 319 -62 321 -206 770 -166 518 -180 556 -373 955
-73 151 -149 313 -170 360 -21 47 -157 320 -303 607 l-264 523 -262 394 c-143
217 -286 434 -316 482 -124 197 -277 390 -476 604 -33 36 -114 127 -178 203
-137 160 -633 660 -851 858 -308 279 -644 551 -1075 874 -146 109 -310 235
-365 279 -137 111 -151 121 -310 218 -566 344 -1377 761 -2155 1106 -456 202
-670 282 -920 342 -152 37 -481 118 -645 159 -233 58 -561 134 -620 143 -33 5
-127 21 -210 34 -507 85 -904 130 -1360 154 -208 11 -714 11 -988 -1z"/>
<path d="M31215 19694 c-16 -3 -80 -11 -140 -19 -395 -49 -816 -222 -1155
-473 -590 -438 -988 -1112 -1099 -1857 -86 -584 26 -1219 307 -1730 276 -503
709 -900 1215 -1114 308 -131 608 -192 947 -194 788 -3 1547 385 2048 1047
296 391 481 847 554 1366 8 60 13 191 13 355 -1 286 -15 413 -75 661 -212 872
-831 1561 -1655 1841 -236 80 -440 114 -715 118 -118 2 -228 1 -245 -1z"/>
</g>
</svg>
